<svg xmlns="http://www.w3.org/2000/svg" width="732.5116577148438" height="303.6677551269531" viewBox="-387.0525817871094 -64.94918060302734 732.5116577148438 303.6677551269531"><title>Neo4j Graph Visualization</title><desc>Created using Neo4j (http://www.neo4j.com/)</desc><g class="layer relationships"><g class="relationship" transform="translate(159.12614840706803 58.67678558907588) rotate(357.84945644289076)"><path class="outline" fill="#A5ABB6" stroke="none" d="M 25 0.5 L 52.952377202023655 0.5 L 52.952377202023655 -0.5 L 25 -0.5 Z M 97.49143970202365 0.5 L 125.44381690404731 0.5 L 125.44381690404731 3.5 L 132.4438169040473 0 L 125.44381690404731 -3.5 L 125.44381690404731 -0.5 L 97.49143970202365 -0.5 Z"/><text text-anchor="middle" pointer-events="none" font-size="8px" fill="#000000" x="75.22190845202365" y="3" font-family="sans-serif">LINKS_TO</text></g><g class="relationship" transform="translate(-138.95640501167003 70.57719732006133) rotate(205.38690345820044)"><path class="outline" fill="#A5ABB6" stroke="none" d="M 24.018736134675446,-6.953439040707552 L 24.277555179777966,-5.987513214418485 A 224.06673390348868 224.06673390348868 0 0 1 53.07655350102791,-11.712429893221866 L 52.9462631215579,-12.703905771404266 A 225.06673390348868 225.06673390348868 0 0 0 24.018736134675446,-6.953439040707552 Z M 106.93326181217404,-13.267028349431172 L 106.82368111983223,-12.273050446323737 A 224.06673390348868 224.06673390348868 0 0 1 135.73583034790877,-7.150101852005027 L 135.01998731139156,-4.23675862693356 L 142.65293837916172,-5.96535863764344 L 136.6902877299317,-11.03455948543365 L 135.97444469341448,-8.121216260362182 A 225.06673390348868 225.06673390348868 0 0 0 106.93326181217404,-13.267028349431172"/><text text-anchor="middle" pointer-events="none" font-size="8px" fill="#000000" x="79.92803084627235" y="-11.110186633633418" transform="rotate(180 79.92803084627235 -14.110186633633418)" font-family="sans-serif">MENTIONED</text></g><g class="relationship" transform="translate(-289.7672496392269 -0.9908169040357748) rotate(475.38690345820044)"><path class="outline" fill="#A5ABB6" stroke="none" d="M 6.953439040707552 24.018736134675446 L 17.306200844808384 62.65576918623819 A 17.916697508022974 17.916697508022974 0 1 1 -17.306200844808384 62.65576918623819 L -8.765172356425198 30.780216918698923 L -4.901469051268926 31.815493099109005 L -6.4704761275630185 24.148145657226706 L -11.662949835292403 30.00375978339136 L -7.79924653013613 31.039035963801442 L -16.340275018519314 62.91458823134071 A 16.916697508022974 16.916697508022974 0 1 0 16.340275018519314 62.91458823134071 L 5.987513214418485 24.277555179777966 Z"/><text text-anchor="middle" pointer-events="none" font-size="8px" fill="#000000" x="0" y="94.20964923467838" transform="rotate(180 0 91.20964923467838)" font-family="sans-serif">FOLLOWS</text></g><g class="relationship" transform="translate(-138.95640501167003 70.57719732006133) rotate(339.32678768087453)"><path class="outline" fill="#A5ABB6" stroke="none" d="M 6.953439040707552 24.018736134675446 L 17.306200844808384 62.65576918623819 A 17.916697508022974 17.916697508022974 0 1 1 -17.306200844808384 62.65576918623819 L -8.765172356425198 30.780216918698923 L -4.901469051268926 31.815493099109005 L -6.4704761275630185 24.148145657226706 L -11.662949835292403 30.00375978339136 L -7.79924653013613 31.039035963801442 L -16.340275018519314 62.91458823134071 A 16.916697508022974 16.916697508022974 0 1 0 16.340275018519314 62.91458823134071 L 5.987513214418485 24.277555179777966 Z"/><text text-anchor="middle" pointer-events="none" font-size="8px" fill="#000000" x="0" y="94.20964923467838" font-family="sans-serif">RETWEETS</text></g><g class="relationship" transform="translate(-138.95640501167003 70.57719732006133) rotate(384.68015960664985)"><path class="outline" fill="#A5ABB6" stroke="none" d="M 6.953439040707552 24.018736134675446 L 17.306200844808384 62.65576918623819 A 17.916697508022974 17.916697508022974 0 1 1 -17.306200844808384 62.65576918623819 L -8.765172356425198 30.780216918698923 L -4.901469051268926 31.815493099109005 L -6.4704761275630185 24.148145657226706 L -11.662949835292403 30.00375978339136 L -7.79924653013613 31.039035963801442 L -16.340275018519314 62.91458823134071 A 16.916697508022974 16.916697508022974 0 1 0 16.340275018519314 62.91458823134071 L 5.987513214418485 24.277555179777966 Z"/><text text-anchor="middle" pointer-events="none" font-size="8px" fill="#000000" x="0" y="94.20964923467838" font-family="sans-serif">REPLY_TO</text></g><g class="relationship" transform="translate(316.45907442632716 52.76866646929602) rotate(460.82738377409885)"><path class="outline" fill="#A5ABB6" stroke="none" d="M 25 0.5 L 55.31528779790453 0.5 L 55.31528779790453 -0.5 L 25 -0.5 Z M 97.47935029790453 0.5 L 127.79463809580906 0.5 L 127.79463809580906 3.5 L 134.79463809580906 0 L 127.79463809580906 -3.5 L 127.79463809580906 -0.5 L 97.47935029790453 -0.5 Z"/><text text-anchor="middle" pointer-events="none" font-size="8px" fill="#000000" x="76.39731904790453" y="3" transform="rotate(180 76.39731904790453 0)" font-family="sans-serif">PART_OF</text></g><g class="relationship" transform="translate(-138.95640501167003 70.57719732006133) rotate(357.713782809456)"><path class="outline" fill="#A5ABB6" stroke="none" d="M 25 0.5 L 122.28695819673646 0.5 L 122.28695819673646 -0.5 L 25 -0.5 Z M 169.03305194673646 0.5 L 266.3200101434729 0.5 L 266.3200101434729 3.5 L 273.3200101434729 0 L 266.3200101434729 -3.5 L 266.3200101434729 -0.5 L 169.03305194673646 -0.5 Z"/><text text-anchor="middle" pointer-events="none" font-size="8px" fill="#000000" x="145.66000507173646" y="3" font-family="sans-serif">CONTAINS</text></g><g class="relationship" transform="translate(-138.95640501167003 70.57719732006133) rotate(430.0335315324252)"><path class="outline" fill="#A5ABB6" stroke="none" d="M 6.953439040707552 24.018736134675446 L 17.306200844808384 62.65576918623819 A 17.916697508022974 17.916697508022974 0 1 1 -17.306200844808384 62.65576918623819 L -8.765172356425198 30.780216918698923 L -4.901469051268926 31.815493099109005 L -6.4704761275630185 24.148145657226706 L -11.662949835292403 30.00375978339136 L -7.79924653013613 31.039035963801442 L -16.340275018519314 62.91458823134071 A 16.916697508022974 16.916697508022974 0 1 0 16.340275018519314 62.91458823134071 L 5.987513214418485 24.277555179777966 Z"/><text text-anchor="middle" pointer-events="none" font-size="8px" fill="#000000" x="0" y="94.20964923467838" font-family="sans-serif">QUOTES</text></g><g class="relationship" transform="translate(5.010560228979315 134.59539703406577) rotate(203.97341575509927)"><path class="outline" fill="#A5ABB6" stroke="none" d="M 25 0.5 L 61.683762751623746 0.5 L 61.683762751623746 -0.5 L 25 -0.5 Z M 88.87516900162375 0.5 L 125.55893175324749 0.5 L 125.55893175324749 3.5 L 132.5589317532475 0 L 125.55893175324749 -3.5 L 125.55893175324749 -0.5 L 88.87516900162375 -0.5 Z"/><text text-anchor="middle" pointer-events="none" font-size="8px" fill="#000000" x="75.27946587662375" y="3" transform="rotate(180 75.27946587662375 0)" font-family="sans-serif">TAGS</text></g><g class="relationship" transform="translate(-289.7672496392269 -0.9908169040357748) rotate(385.38690345820044)"><path class="outline" fill="#A5ABB6" stroke="none" d="M 24.018736134675446,-6.953439040707552 L 24.277555179777966,-5.987513214418485 A 224.06673390348868 224.06673390348868 0 0 1 63.43373551882125,-12.829234257442579 L 63.34966878816051,-13.825694384490305 A 225.06673390348868 225.06673390348868 0 0 0 24.018736134675446,-6.953439040707552 Z M 96.50872012181372,-14.171566741257891 L 96.44545698831129,-13.173569859529579 A 224.06673390348868 224.06673390348868 0 0 1 135.73583034790877,-7.150101852005027 L 135.01998731139156,-4.23675862693356 L 142.65293837916172,-5.96535863764344 L 136.6902877299317,-11.03455948543365 L 135.97444469341448,-8.121216260362182 A 225.06673390348868 225.06673390348868 0 0 0 96.50872012181372,-14.171566741257891"/><text text-anchor="middle" pointer-events="none" font-size="8px" fill="#000000" x="79.92803084627235" y="-11.110186633633418" font-family="sans-serif">POSTS</text></g></g><g class="layer nodes"><g class="node" transform="translate(5.010560228979315,134.59539703406577)"><circle class="outline" cx="0" cy="0" r="25" fill="#4C8EDA" stroke="#2870c2" stroke-width="2px"/><text text-anchor="middle" pointer-events="none" font-family="sans-serif" dy="1.5625" font-size="25" fill="#FFFFFF"/><text text-anchor="middle" pointer-events="none" x="0" y="5" font-size="10px" fill="#FFFFFF" font-family="sans-serif"> Hashtag</text></g><g class="node" transform="translate(286.44152947981445,209.71857363573776)"><circle class="outline" cx="0" cy="0" r="25" fill="#FFC454" stroke="#d7a013" stroke-width="2px"/><text text-anchor="middle" pointer-events="none" font-family="sans-serif" dy="1.5625" font-size="25" fill="#2A2C34"/><text text-anchor="middle" pointer-events="none" x="0" y="5" font-size="10px" fill="#2A2C34" font-family="sans-serif"> Site</text></g><g class="node" transform="translate(-289.7672496392269,-0.9908169040357748)"><circle class="outline" cx="0" cy="0" r="25" fill="#F16667" stroke="#eb2728" stroke-width="2px"/><text text-anchor="middle" pointer-events="none" font-family="sans-serif" dy="1.5625" font-size="25" fill="#FFFFFF"/><text text-anchor="middle" pointer-events="none" x="0" y="5" font-size="10px" fill="#FFFFFF" font-family="sans-serif"> User</text></g><g class="node" transform="translate(-138.95640501167003,70.57719732006133)"><circle class="outline" cx="0" cy="0" r="25" fill="#8DCC93" stroke="#5db665" stroke-width="2px"/><text text-anchor="middle" pointer-events="none" font-family="sans-serif" dy="1.5625" font-size="25" fill="#2A2C34"/><text text-anchor="middle" pointer-events="none" x="0" y="5" font-size="10px" fill="#2A2C34" font-family="sans-serif"> Tweet</text></g><g class="node" transform="translate(159.12614840706803,58.67678558907588)"><circle class="outline" cx="0" cy="0" r="25" fill="#F79767" stroke="#f36924" stroke-width="2px"/><text text-anchor="middle" pointer-events="none" font-family="sans-serif" dy="1.5625" font-size="25" fill="#FFFFFF"/><text text-anchor="middle" pointer-events="none" x="0" y="5" font-size="10px" fill="#FFFFFF" font-family="sans-serif"> Link</text></g><g class="node" transform="translate(316.45907442632716,52.76866646929602)"><circle class="outline" cx="0" cy="0" r="25" fill="#C990C0" stroke="#b261a5" stroke-width="2px"/><text text-anchor="middle" pointer-events="none" font-family="sans-serif" dy="1.5625" font-size="25" fill="#FFFFFF"/><text text-anchor="middle" pointer-events="none" x="0" y="5" font-size="10px" fill="#FFFFFF" font-family="sans-serif"> Url</text></g></g></svg>